<svg viewBox="0 0 500 360" xmlns="http://www.w3.org/2000/svg" role="img" aria-label="Ilustrasi perjalanan" fill="none">
  <rect width="500" height="360" rx="32" fill="#eef4ff" />
  <circle cx="110" cy="100" r="50" fill="#ffcd7a" />
  <path d="M50 280c30-40 90-80 160-70s100 60 140 70 80 15 110 0" fill="#dbe7ff" />
  <path d="M330 240c0 40-48 60-96 60s-96-20-96-60 48-80 96-80 96 40 96 80Z" fill="#0b3d91" opacity="0.12" />
  <path d="M146 196c18-42 53-76 95-90 36 27 60 72 56 118" stroke="#0b3d91" stroke-width="10" stroke-linecap="round" stroke-linejoin="round" />
  <path d="M164 232h168" stroke="#0b3d91" stroke-width="12" stroke-linecap="round" />
  <circle cx="358" cy="134" r="26" fill="#ff8a00" />
  <path d="M308 86l-24 12" stroke="#ff8a00" stroke-width="10" stroke-linecap="round" />
  <path d="M338 94l-16-20" stroke="#ff8a00" stroke-width="10" stroke-linecap="round" />
  <path d="M380 114l20-6" stroke="#ff8a00" stroke-width="10" stroke-linecap="round" />
</svg>
